<svg xmlns="http://www.w3.org/2000/svg" viewBox="0 0 321.84 510.3"><defs><style>.cls-1{fill:#0089b4;}</style></defs><title>flag</title><g id="Calque_2" data-name="Calque 2"><g id="Calque_5" data-name="Calque 5"><path class="cls-1" d="M261.53,0l-5.73,0c-2.15,0-52.36.58-121.32,65.5C70.36,125.86,35.74,133,35.47,133l-9.22,1.57L86.38,313.09l6.74-1.15c1.55-.26,38.81-7.22,107.24-71.64,63.8-60.06,109.89-61.15,110.3-61.15l11.18,0Zm-80.31,175-18-53.35c18.49-16.81,35.48-28.82,50.31-37.39l18,53.42C216.71,146.32,199.71,158.3,181.22,175.07ZM112.7,164.65l18,53.39c-24,17.64-40.78,25.47-49.73,28.81l-18-53.43C72,190.05,88.73,182.22,112.7,164.65ZM265.8,62.86c-9.78,1.68-27.92,6.46-51.66,20L198.61,36.72c24.67-14.34,43-18.77,51.62-20.12ZM145.45,77.15l1.34-1.24,15.32,45.51c-1.42,1.29-2.84,2.61-4.28,4A492.91,492.91,0,0,1,113.22,163L97.77,117.14A494.84,494.84,0,0,0,145.45,77.15Zm1.87,187.2-15.46-45.94a492.53,492.53,0,0,0,45-37.92c1.32-1.24,2.63-2.45,3.94-3.65l15.36,45.64c-2.22,2-4.46,4-6.73,6.17A491.2,491.2,0,0,1,147.32,264.35Zm101-80-15.53-46.13c23.85-13.64,42-18.37,51.66-20L300,164.35C289.33,166.29,271.34,171.32,248.3,184.34Z"/><rect class="cls-1" x="60.26" y="131.14" width="16" height="386.42" transform="translate(-98.39 37.84) rotate(-18.3)"/></g></g></svg>